<svg width="44" height="45" viewBox="0 0 44 45" fill="none" xmlns="http://www.w3.org/2000/svg">
<path d="M21.9844 0.953125C10.0327 0.953125 0.341797 10.644 0.341797 22.5957C0.341797 34.5475 10.0327 44.2383 21.9844 44.2383C33.9361 44.2383 43.627 34.5475 43.627 22.5957C43.627 10.644 33.9361 0.953125 21.9844 0.953125ZM32.3854 17.2672C32.3999 17.4943 32.3999 17.731 32.3999 17.9629C32.3999 25.0547 26.9989 33.2238 17.1293 33.2238C14.0858 33.2238 11.2645 32.3397 8.88772 30.818C9.32251 30.8663 9.73797 30.8856 10.1824 30.8856C12.6945 30.8856 15.0037 30.0354 16.8443 28.5957C14.4868 28.5474 12.5061 27.0015 11.8298 24.8759C12.6559 24.9967 13.3998 24.9967 14.2501 24.7793C13.0362 24.5327 11.9451 23.8734 11.1622 22.9135C10.3793 21.9536 9.95288 20.7523 9.95536 19.5136V19.4459C10.6655 19.8469 11.5013 20.0933 12.3757 20.1271C11.6406 19.6372 11.0378 18.9735 10.6206 18.1949C10.2035 17.4162 9.98494 16.5467 9.98435 15.6633C9.98435 14.6633 10.2452 13.7503 10.7138 12.958C12.0612 14.6166 13.7425 15.9732 15.6484 16.9395C17.5544 17.9058 19.6424 18.4602 21.7767 18.5667C21.0182 14.9194 23.7429 11.9677 27.0182 11.9677C28.5641 11.9677 29.9554 12.615 30.9361 13.6585C32.1487 13.4314 33.3081 12.9773 34.3419 12.3686C33.941 13.6102 33.1004 14.6585 31.9844 15.3203C33.0666 15.2044 34.11 14.9049 35.0762 14.4846C34.3468 15.557 33.4337 16.5087 32.3854 17.2672Z" fill="white"/>
</svg>
