<svg width="45" height="27" viewBox="0 0 45 27" fill="none" xmlns="http://www.w3.org/2000/svg">
<path fill-rule="evenodd" clip-rule="evenodd" d="M43.6546 2.22218C43.9616 1.21229 43.6546 0.46875 42.1842 0.46875H37.3289C36.0934 0.46875 35.5237 1.11056 35.2148 1.81897C35.2148 1.81897 32.7456 7.73032 29.248 11.5701C28.116 12.6836 27.6018 13.0369 26.9841 13.0369C26.6752 13.0369 26.2109 12.6836 26.2109 11.6718V2.22218C26.2109 1.00884 25.8706 0.46875 24.8422 0.46875H17.207C16.4357 0.46875 15.9715 1.03103 15.9715 1.56557C15.9715 2.71418 17.7212 2.98052 17.9006 6.21364V13.2385C17.9006 14.7792 17.6176 15.0585 16.9999 15.0585C15.3537 15.0585 11.3493 9.11938 8.97257 2.32391C8.51201 1.00144 8.04591 0.46875 6.80482 0.46875H1.9459C0.558691 0.46875 0.28125 1.11056 0.28125 1.81897C0.28125 3.0804 1.9274 9.34688 7.94788 17.635C11.9615 23.2948 17.6121 26.3633 22.7596 26.3633C25.8466 26.3633 26.2276 25.6826 26.2276 24.5081V20.23C26.2276 18.8668 26.5198 18.5949 27.4983 18.5949C28.2196 18.5949 29.4533 18.9501 32.335 21.6782C35.6273 24.9132 36.1692 26.3633 38.0225 26.3633H42.8778C44.265 26.3633 44.9604 25.6826 44.5609 24.3361C44.1207 22.997 42.5485 21.0531 40.464 18.7466C39.3321 17.4334 37.6341 16.0184 37.1181 15.31C36.3986 14.4019 36.6039 13.9968 37.1181 13.1885C37.1181 13.1885 43.0368 5.00214 43.6528 2.22218H43.6546Z" fill="white"/>
</svg>
