<svg width="32" height="32" viewBox="0 0 32 32" fill="none" xmlns="http://www.w3.org/2000/svg">
<rect x="0.980469" y="0.649902" width="30.6091" height="30.6091" rx="4.50931" fill="black"/>
<path d="M24.1864 14.7083C25.2883 14.7157 25.6451 14.4036 25.7825 14.201C26.2939 13.5317 25.493 12.2489 23.6151 11.2758C24.3435 9.89864 24.8499 8.66424 25.1054 7.7776C25.2441 7.29245 25.1501 6.99841 25.1239 6.94715C25.0534 7.37858 24.4739 8.9345 23.1472 11.0502C22.122 10.5901 20.8293 10.2259 19.3017 10.0742C18.9351 9.37946 17.8713 7.45526 16.8214 6.42714C16.1308 5.74843 15.578 5.4995 15.1466 5.46464H15.1445C14.5773 5.40107 14.2148 5.70455 14.0208 5.91575C13.3155 6.67566 13.0231 7.91991 12.9956 9.36346C12.6987 8.85699 12.2914 8.35338 11.8268 8.30007H11.8194C10.9721 8.15736 10.245 9.49838 10.3431 11.6338C8.76991 11.6904 7.43134 11.8696 6.52912 12.0943C6.12312 12.1948 5.86394 12.3925 5.80078 12.4929C5.84179 12.4774 6.71941 12.1148 10.3759 12.1148C10.5899 14.2884 11.5959 16.2905 11.4421 15.9366C11.0431 16.5681 9.8739 18.4939 9.50194 19.9432C9.26121 20.8815 9.32272 21.4856 9.50809 21.8764C9.73651 22.3993 10.1811 22.5621 10.4595 22.6253C11.4848 22.8595 12.7307 22.4764 14.0151 21.7583C13.7063 22.2849 13.4451 22.9275 13.6435 23.3717C13.9433 24.1775 15.4681 24.1369 17.2705 22.9841C18.0981 24.3038 18.9137 25.3602 19.5547 26.0238C19.66 26.1372 19.7808 26.2351 19.9136 26.3146C20.1244 26.4462 20.2654 26.4528 20.2654 26.4528C19.9275 26.1759 18.8711 24.8944 17.7007 22.6889C18.6119 22.0327 19.5728 21.0948 20.4676 19.8481C25.5045 20.0367 26.3439 18.8327 26.5371 18.5505C27.1387 17.7353 26.6778 16.1949 24.1864 14.7083V14.7083ZM20.9938 19.0644C21.9702 17.5179 22.238 16.2851 22.2015 15.2779C23.3441 15.9985 24.1364 16.8191 24.2135 17.6906C24.2602 18.2208 23.8813 18.8848 20.9938 19.0644ZM14.684 21.3548C15.0842 21.0993 15.4849 20.8167 15.8815 20.5145C16.1554 21.0612 16.4392 21.5849 16.7263 22.0807C15.0613 22.9772 13.9031 22.604 14.684 21.3548V21.3548ZM23.5011 14.3277C23.0791 14.1087 22.6334 13.9037 22.1732 13.7105C22.4991 13.2155 22.8101 12.7109 23.1058 12.1973C24.7076 13.1856 24.9881 14.3782 23.5011 14.3277V14.3277ZM17.2381 21.7776C17.0121 21.3121 16.787 20.8139 16.5614 20.2832C18.3351 20.3353 19.1213 19.5151 19.1565 19.4462C19.1565 19.4491 18.1313 20.0876 16.5922 19.9486C17.8486 18.8991 19.0154 17.7469 20.0805 16.5037C20.4375 16.0851 20.7783 15.6599 21.1029 15.2279C21.0881 15.216 21.0397 15.1049 20.4258 14.7358C18.3056 17.2075 16.2288 18.7548 14.9817 19.4897C14.1373 19.0312 13.3068 18.1864 12.697 16.968C11.8768 15.3308 11.4667 13.5891 11.4023 12.2079C11.9068 12.2452 12.4387 12.2969 12.9956 12.367C12.0815 13.8762 12.4054 14.9507 12.4432 15.0011C12.4432 14.9982 12.4042 13.8048 13.2691 12.5581C13.6377 14.7107 14.2524 16.8138 15.101 18.8261C15.1392 18.8105 15.1765 18.8622 15.8667 18.4878C14.7869 15.4338 14.4822 12.8214 14.4724 11.3754C15.2926 10.8661 16.4482 10.5634 17.82 10.645C19.6478 10.7545 21.3616 11.2704 22.5903 11.9044C22.298 12.3326 21.9791 12.7765 21.6335 13.236C20.7834 11.6891 19.6954 11.4365 19.6298 11.4431C19.6343 11.4431 20.6919 12.0201 21.3325 13.3796C19.7948 12.8152 18.2126 12.3802 16.6024 12.0791C16.0666 11.9799 15.5279 11.8971 14.987 11.831C14.9842 11.8495 14.9128 11.9069 14.8984 12.6648C18.0919 13.259 20.5025 14.3007 21.7566 15.011C21.7869 15.9767 21.4715 17.1275 20.7145 18.2741C19.7056 19.8042 18.4019 21.0312 17.2381 21.7776ZM18.3617 10.0077C16.5343 9.93965 15.3442 10.3124 14.4785 10.8554C14.5605 8.71058 15.3524 7.72306 16.0455 7.76817C16.7386 7.59429 18.2969 9.90725 18.3617 10.0077ZM13.0038 10.1349C13.0235 10.6315 13.069 11.1445 13.1354 11.6637C12.5387 11.6289 11.9568 11.6125 11.3966 11.612C11.3933 11.7449 11.3917 9.52053 12.4083 9.57835H12.412C12.6482 9.62306 12.8479 9.8605 13.0038 10.1349ZM11.853 16.7785C12.7044 18.4066 13.6288 19.2625 14.5289 19.7439C12.6101 20.7593 11.3494 20.5641 11.0464 19.9289C11.0382 19.9203 10.5899 19.3014 11.853 16.7789V16.7785Z" fill="white"/>
</svg>
