<svg width="44" height="42" viewBox="0 0 44 42" fill="none" xmlns="http://www.w3.org/2000/svg">
<rect x="9.27881" y="10.9382" width="23.6633" height="18.8636" fill="white"/>
<path d="M17.8626 19.2317C16.8978 19.2317 16.1378 20.0315 16.1378 21.0082C16.1378 21.9814 16.9156 22.7846 17.8626 22.7846C18.8256 22.7846 19.5857 21.9814 19.5857 21.0082C19.6053 20.0299 18.8256 19.2317 17.8626 19.2317ZM24.0358 19.2317C23.071 19.2317 22.3109 20.0315 22.3109 21.0082C22.3109 21.9814 23.0888 22.7846 24.0358 22.7846C24.9987 22.7846 25.7588 21.9814 25.7588 21.0082C25.757 20.0299 24.9987 19.2317 24.0358 19.2317Z" fill="black"/>
<path d="M32.2535 5.81004H9.59195C9.13566 5.81115 8.68406 5.89726 8.26295 6.06346C7.84183 6.22965 7.45945 6.47269 7.13763 6.77868C6.81581 7.08466 6.56085 7.44762 6.38731 7.84682C6.21378 8.24601 6.12506 8.67363 6.12623 9.10526V30.7322C6.12623 32.5557 7.68198 34.0274 9.59195 34.0274H28.7682L27.8693 31.0655L30.0356 32.9699L32.0809 34.7615L35.7192 37.8025V9.10526C35.7204 8.67363 35.6317 8.24601 35.4582 7.84682C35.2846 7.44762 35.0297 7.08466 34.7078 6.77868C34.386 6.47269 34.0036 6.22965 33.5825 6.06346C33.1614 5.89726 32.7098 5.81115 32.2535 5.81004V5.81004ZM25.7244 26.7011C25.7244 26.7011 25.1156 26.0141 24.6101 25.4029C26.8244 24.8102 27.6699 23.5002 27.6699 23.5002C26.9757 23.9312 26.3171 24.2377 25.7244 24.4465C23.5664 25.3008 21.19 25.5339 18.8926 25.1166C18.0437 24.9589 17.2119 24.7278 16.4077 24.4263C15.9835 24.2739 15.5713 24.0932 15.1741 23.8858C15.1225 23.8504 15.0727 23.8369 15.0228 23.8049C14.9962 23.793 14.9725 23.7757 14.9534 23.7544C14.649 23.5962 14.4799 23.485 14.4799 23.485C14.4799 23.485 15.2916 24.7647 17.4401 25.3726C16.9328 25.9787 16.3062 26.7011 16.3062 26.7011C12.5699 26.5883 11.1513 24.2697 11.1513 24.2697C11.1513 19.1189 13.5863 14.9447 13.5863 14.9447C16.0214 13.2155 18.3372 13.2643 18.3372 13.2643L18.5063 13.4562C15.4625 14.2897 14.058 15.5526 14.058 15.5526C14.058 15.5526 14.4319 15.3606 15.0566 15.0895C16.8652 14.3386 18.3016 14.1298 18.8944 14.0809C18.9959 14.0658 19.0813 14.0489 19.1828 14.0489C22.1148 13.6752 25.0963 14.2023 27.6877 15.5526C27.6877 15.5526 26.3509 14.3537 23.4762 13.5219L23.7129 13.266C23.7129 13.266 26.0305 13.2171 28.4638 14.9464C28.4638 14.9464 30.8989 19.1206 30.8989 24.2714C30.8989 24.2697 29.4624 26.5883 25.7244 26.7011V26.7011Z" fill="black"/>
</svg>
