<svg width="31" height="31" viewBox="0 0 31 31" fill="none"
    xmlns="http://www.w3.org/2000/svg">
    <path d="M21.6577 14.6938C21.6939 15.6925 21.4284 16.9149 20.4602 18.4483C23.3233 18.2702 23.699 17.6118 23.6527 17.0861C23.5762 16.222 22.7906 15.4083 21.6577 14.6938Z" fill="white" />
    <path d="M15.391 19.8862C14.9978 20.1859 14.6005 20.466 14.2037 20.7194C13.4294 21.958 14.5778 22.328 16.2287 21.4391C15.9441 20.9475 15.6627 20.4282 15.391 19.8862Z" fill="white" />
    <path d="M21.6296 13.1397C22.0859 13.3312 22.5279 13.5345 22.9463 13.7516C24.4208 13.8017 24.1427 12.6192 22.5543 11.6392C22.2612 12.1485 21.9528 12.6489 21.6296 13.1397Z" fill="white" />
    <path d="M16.0652 19.6568C16.2889 20.183 16.5121 20.6771 16.7362 21.1386C17.8902 20.3985 19.1829 19.1819 20.1832 17.6647C20.9339 16.5278 21.2466 15.3867 21.2165 14.4291C19.973 13.7248 17.5828 12.692 14.4163 12.1027C14.4289 11.4379 14.4858 11.3167 14.5007 11.2849C14.5026 11.2808 14.5038 11.2782 14.5042 11.276C15.0405 11.3416 15.5746 11.4236 16.1059 11.5221C17.7024 11.8206 19.2713 12.2519 20.796 12.8115C20.1609 11.4635 19.1122 10.8914 19.1077 10.8914C19.1727 10.8849 20.2516 11.1353 21.0945 12.6692C21.4372 12.2135 21.7534 11.7734 22.0432 11.3488C20.8249 10.7202 19.1256 10.2086 17.3132 10.1001C15.953 10.0191 14.8071 10.3192 13.9938 10.8243C14.0036 12.2581 14.3057 14.8483 15.3764 17.8766C14.8032 18.1875 14.6841 18.2021 14.6384 18.2077C14.6295 18.2088 14.6233 18.2095 14.6172 18.212C13.7757 16.2168 13.1662 14.1314 12.8008 11.997C11.9509 13.2221 11.9812 14.3952 11.9818 14.419C11.9444 14.369 11.6231 13.3039 12.5295 11.8075C11.9773 11.738 11.4499 11.6867 10.9498 11.6497C11.0136 13.0193 11.4202 14.7463 12.2335 16.3696C12.8382 17.5777 13.6616 18.4154 14.4989 18.87C15.7355 18.1413 17.7947 16.607 19.897 14.1562C20.4365 14.4806 20.5355 14.6041 20.5613 14.6362C20.5646 14.6403 20.5667 14.6429 20.5683 14.6442C20.2465 15.0725 19.9086 15.4942 19.5546 15.9093C18.4985 17.1419 17.3415 18.2844 16.0957 19.325C17.6218 19.4629 18.6384 18.8297 18.6384 18.8269C18.6035 18.8952 17.8239 19.7085 16.0652 19.6568Z" fill="white" />
    <path d="M13.9999 10.3087C14.8583 9.77027 16.0384 9.40064 17.8504 9.46814C17.7861 9.36851 16.2409 7.07509 15.5537 7.2475C14.8665 7.20277 14.0813 8.18195 13.9999 10.3087Z" fill="white" />
    <path d="M12.6682 11.1101C12.6023 10.5953 12.5572 10.0866 12.5377 9.5942C12.3831 9.32216 12.1851 9.08671 11.9509 9.04239H11.9472C10.9392 8.98506 10.9408 11.1907 10.9441 11.0589C11.4995 11.0593 12.0765 11.0756 12.6682 11.1101Z" fill="white" />
    <path d="M14.0499 19.1221C13.1574 18.6447 12.2408 17.7961 11.3966 16.1817C10.1442 18.6829 10.5887 19.2969 10.5968 19.3055C10.8973 19.9354 12.1473 20.1289 14.0499 19.1221Z" fill="white" />
    <path fillRule="evenodd" clipRule="evenodd" d="M5.35567 0.568359C2.94794 0.568359 0.996094 2.52021 0.996094 4.92794V25.8016C0.996094 28.2093 2.94794 30.1611 5.35567 30.1611H26.2293C28.637 30.1611 30.5889 28.2093 30.5889 25.8016V4.92794C30.5889 2.52021 28.637 0.568359 26.2293 0.568359H5.35567ZM25.2084 13.626C25.0722 13.8269 24.7185 14.1363 23.6258 14.129C26.0961 15.6031 26.5532 17.1304 25.9567 17.9388C25.7651 18.2185 24.9327 19.4124 19.9384 19.2254C19.0512 20.4616 18.0984 21.3915 17.1949 22.0421C18.3554 24.229 19.4029 25.4998 19.738 25.7743C19.738 25.7743 19.5981 25.7677 19.3891 25.6372C19.2574 25.5585 19.1376 25.4614 19.0333 25.3489C18.3977 24.691 17.5889 23.6435 16.7683 22.3349C14.9811 23.478 13.4693 23.5182 13.172 22.7192C12.9752 22.2788 13.2342 21.6416 13.5404 21.1195C12.2668 21.8315 11.0315 22.2113 10.0149 21.9791C9.73879 21.9165 9.298 21.7551 9.0715 21.2366C8.8877 20.8491 8.8267 20.2501 9.0654 19.3197C9.43315 17.8868 10.5868 15.9842 10.9857 15.3524C10.8562 15.0895 10.1119 13.3846 9.93194 11.5574C6.36131 11.5574 5.46318 11.9061 5.39793 11.9314C5.39693 11.9318 5.39612 11.9321 5.39551 11.9324C5.45813 11.8327 5.71512 11.6367 6.11769 11.5371C7.01229 11.3143 8.33955 11.1366 9.89941 11.0805C9.80222 8.9631 10.5232 7.6334 11.3633 7.77491H11.3706C11.8313 7.82777 12.2351 8.32712 12.5295 8.82931C12.5568 7.39795 12.8467 6.16422 13.5461 5.41072C13.7385 5.20131 14.0979 4.90039 14.6603 4.96342H14.6623C15.0901 4.99799 15.6383 5.24482 16.323 5.9178C17.364 6.93724 18.4188 8.84517 18.7824 9.53402C20.2971 9.68447 21.5788 10.0456 22.5954 10.5018C23.9109 8.40397 24.4855 6.86119 24.5554 6.43341C24.5814 6.48424 24.6745 6.7758 24.5371 7.25685C24.2838 8.136 23.7816 9.35997 23.0594 10.7255C24.9214 11.6904 25.7155 12.9624 25.2084 13.626Z" fill="white" />
</svg>