<svg width="33" height="33" viewBox="0 0 33 33" fill="none" xmlns="http://www.w3.org/2000/svg">
<g clip-path="url(#clip0_1_324)">
<ellipse cx="16.2891" cy="16.0315" rx="16" ry="15.7312" fill="white"/>
<path d="M0.947062 20.9663C1.95064 24.2472 3.98103 27.1192 6.73933 29.1596C9.49763 31.1999 12.8381 32.3009 16.2691 32.3003C25.1171 32.3003 32.2891 25.1363 32.2891 16.3003C32.2891 7.46429 25.1171 0.300294 16.2711 0.300294C12.2096 0.298723 8.29932 1.84061 5.33198 4.61375C2.36463 7.38688 0.56199 11.184 0.289062 15.2363L0.295063 15.2483L8.90306 18.7863C9.67942 18.2723 10.5989 18.0181 11.5291 18.0603L15.4491 12.3723L15.4471 12.2923C15.4487 10.679 16.0901 9.13225 17.2307 7.9913C18.3712 6.85036 19.9178 6.20841 21.5311 6.20629C23.1443 6.20841 24.6909 6.85036 25.8315 7.9913C26.972 9.13225 27.6135 10.679 27.6151 12.2923C27.6144 13.1029 27.4521 13.9053 27.1375 14.6525C26.8229 15.3996 26.3624 16.0764 25.783 16.6434C25.2036 17.2103 24.5169 17.656 23.7631 17.9542C23.0093 18.2525 22.2035 18.3973 21.3931 18.3803L15.7851 22.3803C15.8041 23.1212 15.6376 23.8552 15.3007 24.5153C14.9638 25.1755 14.4672 25.741 13.856 26.1604C13.2449 26.5797 12.5386 26.8396 11.8014 26.9165C11.0642 26.9933 10.3195 26.8846 9.63506 26.6003C8.97811 26.3265 8.39671 25.8987 7.93999 25.3528C7.48327 24.807 7.16465 24.1592 7.01106 23.4643L0.949063 20.9663H0.947062Z" fill="black"/>
<path d="M10.025 25.6663C10.8583 25.9844 11.7827 25.9653 12.6022 25.6133C13.4217 25.2612 14.0718 24.6038 14.4146 23.7804C14.7575 22.957 14.7662 22.0325 14.4388 21.2028C14.1114 20.3732 13.4738 19.7037 12.661 19.3363C11.8552 19.0001 10.9511 18.9857 10.135 19.2963L12.181 20.1443C12.487 20.2717 12.7649 20.4581 12.9989 20.6929C13.2328 20.9276 13.4182 21.2062 13.5445 21.5126C13.6708 21.8191 13.7355 22.1474 13.7349 22.4788C13.7343 22.8102 13.6684 23.1383 13.541 23.4443C13.4137 23.7503 13.2273 24.0282 12.9925 24.2621C12.7577 24.4961 12.4791 24.6815 12.1727 24.8077C11.8663 24.934 11.538 24.9987 11.2065 24.9981C10.8751 24.9975 10.547 24.9317 10.241 24.8043L8.26105 23.9843C8.62137 24.7429 9.24973 25.3414 10.025 25.6643V25.6663ZM17.477 12.2923C17.4776 13.3677 17.9047 14.3989 18.6648 15.1597C19.4248 15.9205 20.4557 16.3487 21.531 16.3503C22.6064 16.3487 23.6373 15.9205 24.3973 15.1597C25.1574 14.3989 25.5845 13.3677 25.585 12.2923C25.5835 11.2176 25.1558 10.1874 24.3959 9.42744C23.636 8.66751 22.6057 8.23988 21.531 8.2383C20.4563 8.23988 19.4261 8.66751 18.6662 9.42744C17.9063 10.1874 17.4786 11.2176 17.477 12.2923V12.2923ZM21.537 9.2383C21.9373 9.23856 22.3336 9.31766 22.7033 9.47108C23.073 9.6245 23.4089 9.84923 23.6917 10.1324C23.9746 10.4157 24.1989 10.7518 24.3518 11.1217C24.5047 11.4916 24.5833 11.888 24.583 12.2883C24.5828 12.6886 24.5037 13.0849 24.3503 13.4546C24.1968 13.8243 23.9721 14.1601 23.6889 14.443C23.4057 14.7258 23.0695 14.9501 22.6996 15.103C22.3297 15.256 21.9333 15.3346 21.533 15.3343C20.7247 15.3338 19.9496 15.0121 19.3784 14.4401C18.8071 13.8682 18.4865 13.0927 18.487 12.2843C18.4876 11.4759 18.8092 10.7009 19.3812 10.1296C19.9532 9.55839 20.7287 9.23777 21.537 9.2383V9.2383Z" fill="black"/>
</g>
<defs>
<clipPath id="clip0_1_324">
<rect width="32" height="32" fill="white" transform="translate(0.289062 0.300293)"/>
</clipPath>
</defs>
</svg>
