<svg width="31" height="31" viewBox="0 0 31 31" fill="none"
    xmlns="http://www.w3.org/2000/svg">
    <path d="M29.2259 2.72376H22.8647V0.301731C22.8647 0.135217 22.7284 -0.00102234 22.5618 -0.00102234H20.4415C20.2749 -0.00102234 20.1386 0.135217 20.1386 0.301731V2.72376H10.4454V0.301731C10.4454 0.135217 10.3091 -0.00102234 10.1425 -0.00102234H8.02215C7.85555 -0.00102234 7.71924 0.135217 7.71924 0.301731V2.72376H1.35812C0.687936 2.72376 0.146484 3.26493 0.146484 3.93477V29.0633C0.146484 29.7331 0.687936 30.2743 1.35812 30.2743H29.2259C29.896 30.2743 30.4375 29.7331 30.4375 29.0633V3.93477C30.4375 3.26493 29.896 2.72376 29.2259 2.72376ZM27.7113 27.5495H2.87268V13.1687H27.7113V27.5495ZM2.87268 10.5953V5.44854H7.71924V7.26505C7.71924 7.43157 7.85555 7.56781 8.02215 7.56781H10.1425C10.3091 7.56781 10.4454 7.43157 10.4454 7.26505V5.44854H20.1386V7.26505C20.1386 7.43157 20.2749 7.56781 20.4415 7.56781H22.5618C22.7284 7.56781 22.8647 7.43157 22.8647 7.26505V5.44854H27.7113V10.5953H2.87268Z" fill="white"/>
</svg>
