<svg width="22" height="28" viewBox="0 0 22 28" fill="none" xmlns="http://www.w3.org/2000/svg">
<path d="M1.58333 0.373047H0.25V3.03971H1.58333V4.37305C1.58587 5.9928 2.00905 7.58413 2.81145 8.99118C3.61384 10.3982 4.76792 11.5727 6.16067 12.3997C6.634 12.6797 6.91667 13.129 6.91667 13.601V13.8117C6.91667 14.2837 6.634 14.733 6.162 15.0117C4.76899 15.8388 3.61466 17.0135 2.81204 18.4208C2.00943 19.8281 1.58604 21.4197 1.58333 23.0397V24.373H0.25V27.0397H21.5833V24.373H20.25V23.0397C20.2473 21.4197 19.8239 19.8281 19.0213 18.4208C18.2187 17.0135 17.0643 15.8388 15.6713 15.0117C15.1993 14.7344 14.9167 14.285 14.9167 13.8117V13.601C14.9167 13.129 15.1993 12.681 15.6713 12.401C17.0643 11.5739 18.2187 10.3992 19.0213 8.99196C19.8239 7.58469 20.2473 5.99311 20.25 4.37305V3.03971H21.5833V0.373047H1.58333ZM17.5833 4.37305C17.5816 5.52951 17.2796 6.66572 16.707 7.67047C16.1344 8.67523 15.3108 9.51412 14.3167 10.105C13.4463 10.6116 12.7903 11.4179 12.4713 12.373H9.362C9.04218 11.4176 8.38585 10.611 7.51533 10.1037C6.5215 9.51293 5.6981 8.67423 5.12571 7.66969C4.55333 6.66516 4.25158 5.52921 4.25 4.37305V3.03971H17.5833V4.37305Z" fill="white"/>
</svg>
