<svg width="144" height="34" viewBox="0 0 144 34" fill="none" xmlns="http://www.w3.org/2000/svg">
<path d="M17.576 33.3284C25.304 33.3284 29.48 28.8644 31.544 24.7364L24.44 21.3764C23.384 23.9204 20.648 26.0324 17.576 26.0324C12.344 26.0324 8.648 22.0004 8.648 16.7684C8.648 11.5364 12.344 7.50444 17.576 7.50444C20.648 7.50444 23.384 9.61644 24.44 12.1604L31.544 8.80044C29.432 4.57644 25.304 0.20844 17.576 0.20844C7.736 0.20844 0.248 6.88044 0.248 16.7684C0.248 26.6084 7.736 33.3284 17.576 33.3284ZM47.0184 33.3284C55.6104 33.3284 60.3624 29.0564 60.3624 22.6244C60.3624 10.7204 42.2664 13.6964 42.2664 9.61644C42.2664 8.27244 43.3224 7.31244 45.7224 7.31244C48.8904 7.31244 52.3944 8.41644 55.0824 10.6244L59.5944 4.72044C56.1864 1.79244 51.7224 0.256439 46.5864 0.256439C38.3784 0.256439 33.8184 5.05644 33.8184 10.4324C33.8184 22.7684 51.9624 19.2644 51.9624 23.6324C51.9624 25.1684 50.2344 26.2724 47.4024 26.2724C43.0344 26.2724 39.4824 24.3524 37.1784 22.0484L32.8104 28.2404C36.0264 31.3124 40.5384 33.3284 47.0184 33.3284ZM67.7758 18.2564C70.2238 18.2564 72.2878 16.1924 72.2878 13.7444C72.2878 11.2964 70.2238 9.23244 67.7758 9.23244C65.3278 9.23244 63.2638 11.2964 63.2638 13.7444C63.2638 16.1924 65.3278 18.2564 67.7758 18.2564ZM67.7758 33.3284C70.2238 33.3284 72.2878 31.2644 72.2878 28.8164C72.2878 26.3684 70.2238 24.3044 67.7758 24.3044C65.3278 24.3044 63.2638 26.3684 63.2638 28.8164C63.2638 31.2644 65.3278 33.3284 67.7758 33.3284ZM92.3416 33.3284C98.3896 33.3284 103.046 30.8804 106.502 27.0884V14.3684H91.0456V21.6164H98.2456V24.1124C97.0936 25.0724 94.6936 26.0324 92.3416 26.0324C87.1096 26.0324 83.4136 22.0004 83.4136 16.7684C83.4136 11.5364 87.1096 7.50444 92.3416 7.50444C95.4616 7.50444 97.9096 9.47244 99.1096 11.5844L106.022 7.98444C103.814 4.00044 99.4936 0.20844 92.3416 0.20844C82.7896 0.20844 75.0136 6.59244 75.0136 16.7684C75.0136 26.9444 82.7896 33.3284 92.3416 33.3284ZM126.837 33.3284C136.629 33.3284 143.925 26.5124 143.925 16.7684C143.925 7.02444 136.629 0.20844 126.837 0.20844C117.045 0.20844 109.701 7.02444 109.701 16.7684C109.701 26.5124 117.045 33.3284 126.837 33.3284ZM126.837 26.0324C121.509 26.0324 118.101 21.9524 118.101 16.7684C118.101 11.5364 121.509 7.50444 126.837 7.50444C132.117 7.50444 135.525 11.5364 135.525 16.7684C135.525 21.9524 132.117 26.0324 126.837 26.0324Z" fill="url(#paint0_linear_308_4091)"/>
<defs>
<linearGradient id="paint0_linear_308_4091" x1="72.5" y1="2.50388" x2="72.5" y2="40.7569" gradientUnits="userSpaceOnUse">
<stop stop-color="#6D727D"/>
<stop offset="0.359375" stop-color="white"/>
<stop offset="0.505208" stop-color="#C7CCDC"/>
<stop offset="0.822917" stop-color="#6D727D"/>
<stop offset="1" stop-color="#A4AABB"/>
</linearGradient>
</defs>
</svg>
