<svg width="167" height="34" viewBox="0 0 167 34" fill="none" xmlns="http://www.w3.org/2000/svg">
<path d="M14.368 32.7524C24.4 32.7524 31.648 26.6564 31.648 16.7204C31.648 6.78444 24.4 0.736439 14.32 0.736439H0.88V32.7524H14.368ZM14.32 25.5524H9.136V7.93644H14.368C20.224 7.93644 23.2 11.7764 23.2 16.7204C23.2 21.4724 19.936 25.5524 14.32 25.5524ZM51.259 33.3284C61.051 33.3284 68.347 26.5124 68.347 16.7684C68.347 7.02444 61.051 0.20844 51.259 0.20844C41.467 0.20844 34.123 7.02444 34.123 16.7684C34.123 26.5124 41.467 33.3284 51.259 33.3284ZM51.259 26.0324C45.931 26.0324 42.523 21.9524 42.523 16.7684C42.523 11.5364 45.931 7.50444 51.259 7.50444C56.539 7.50444 59.947 11.5364 59.947 16.7684C59.947 21.9524 56.539 26.0324 51.259 26.0324ZM86.8349 32.7524V7.93644H95.7629V0.736439H69.6029V7.93644H78.5789V32.7524H86.8349ZM127.843 32.7524L115.747 0.736439H105.379L93.3314 32.7524H102.691L104.275 28.1444H116.899L118.483 32.7524H127.843ZM114.643 20.9444H106.483L110.563 8.89644L114.643 20.9444ZM166.825 32.7524V25.5524H155.113C163.081 19.9844 166.585 15.8084 166.585 10.9124C166.585 4.48044 161.161 0.256439 153.625 0.256439C149.161 0.256439 144.073 1.84044 140.665 5.58444L145.225 11.0564C147.529 8.89644 150.217 7.55244 153.769 7.55244C156.121 7.55244 158.185 8.70444 158.185 10.9124C158.185 14.0804 155.593 16.2884 141.721 26.3204V32.7524H166.825Z" fill="url(#paint0_linear_308_3784)"/>
<defs>
<linearGradient id="paint0_linear_308_3784" x1="83.5" y1="2.50388" x2="83.5" y2="40.7569" gradientUnits="userSpaceOnUse">
<stop stop-color="#6D727D"/>
<stop offset="0.359375" stop-color="white"/>
<stop offset="0.505208" stop-color="#C7CCDC"/>
<stop offset="0.822917" stop-color="#6D727D"/>
<stop offset="1" stop-color="#A4AABB"/>
</linearGradient>
</defs>
</svg>
