<svg width="31" height="33" viewBox="0 0 31 33" fill="none"
    xmlns="http://www.w3.org/2000/svg">
    <path d="M27.1234 0.911133H4.46182C4.00553 0.912237 3.55393 0.998346 3.13282 1.16454C2.71171 1.33074 2.32932 1.57377 2.0075 1.87976C1.68568 2.18575 1.43072 2.54871 1.25719 2.94791C1.08365 3.3471 0.994935 3.77472 0.996105 4.20635V25.8332C0.996105 27.6568 2.55185 29.1285 4.46182 29.1285H23.6381L22.7392 26.1666L24.9055 28.071L26.9507 29.8626L30.5891 32.9036V4.20635C30.5903 3.77472 30.5016 3.3471 30.328 2.94791C30.1545 2.54871 29.8995 2.18575 29.5777 1.87976C29.2559 1.57377 28.8735 1.33074 28.4524 1.16454C28.0313 0.998346 27.5797 0.912237 27.1234 0.911133ZM20.5942 21.8022C20.5942 21.8022 19.9855 21.1152 19.4799 20.504C21.6943 19.9113 22.5398 18.6013 22.5398 18.6013C21.8456 19.0323 21.187 19.3388 20.5942 19.5476C18.4363 20.4019 16.0598 20.635 13.7625 20.2177C12.9136 20.06 12.0818 19.8289 11.2776 19.5274C10.8534 19.375 10.4412 19.1943 10.044 18.9869C9.99238 18.9515 9.94254 18.938 9.8927 18.906C9.86603 18.894 9.84237 18.8768 9.82327 18.8555C9.51889 18.6972 9.34979 18.5861 9.34979 18.5861C9.34979 18.5861 10.1615 19.8658 12.31 20.4737C11.8027 21.0798 11.1761 21.8022 11.1761 21.8022C7.43981 21.6894 6.02113 19.3708 6.02113 19.3708C6.02113 14.22 8.45621 10.0458 8.45621 10.0458C10.8913 8.31654 13.2071 8.36537 13.2071 8.36537L13.3762 8.55732C10.3324 9.39081 8.92792 10.6537 8.92792 10.6537C8.92792 10.6537 9.30173 10.4617 9.92652 10.1906C11.735 9.43964 13.1715 9.23085 13.7643 9.18202C13.8657 9.16686 13.9512 9.15003 14.0526 9.15003C16.9847 8.77625 19.9662 9.30336 22.5576 10.6537C22.5576 10.6537 21.2208 9.4548 18.3461 8.62299L18.5828 8.36705C18.5828 8.36705 20.9004 8.31822 23.3337 10.0475C23.3337 10.0475 25.7688 14.2217 25.7688 19.3725C25.7688 19.3708 24.3323 21.6894 20.5942 21.8022Z" fill="white" />
    <path d="M12.7327 14.333C11.7679 14.333 11.0078 15.1328 11.0078 16.1094C11.0078 17.0827 11.7857 17.8859 12.7327 17.8859C13.6957 17.8859 14.4557 17.0827 14.4557 16.1094C14.4753 15.1311 13.6957 14.333 12.7327 14.333ZM18.9058 14.333C17.941 14.333 17.181 15.1328 17.181 16.1094C17.181 17.0827 17.9588 17.8859 18.9058 17.8859C19.8688 17.8859 20.6289 17.0827 20.6289 16.1094C20.6271 15.1311 19.8688 14.333 18.9058 14.333Z" fill="white" />
</svg>