<svg width="311" height="81" viewBox="0 0 311 81" fill="none" xmlns="http://www.w3.org/2000/svg">
<path d="M45.5895 34.1292L69.1955 36.6103L74.1305 59.8276L53.5745 71.6956L35.9352 55.8131L45.5895 34.1292Z" fill="#003CC8"/>
<path d="M264.065 30.574L279.002 49.0203L266.075 68.927L243.147 62.7837L241.905 39.0802L264.065 30.574Z" fill="#003CC8"/>
<path opacity="0.6" d="M40.69 8.53852L47.7125 23.7195L35.4447 35.0895L20.8402 26.9356L24.0819 10.5262L40.69 8.53852Z" fill="#003CC8"/>
<path opacity="0.6" d="M233.592 13.4797L232.836 30.1892L216.711 34.6337L207.501 20.6711L217.934 7.59723L233.592 13.4797Z" fill="#003CC8"/>
<path opacity="0.15" d="M8.84307 30.7527L18.3972 33.6969L18.5495 43.6932L9.08953 46.9272L3.0906 38.9295L8.84307 30.7527Z" fill="#003CC8"/>
<path opacity="0.15" d="M296.719 54.7197L306.273 57.6638L306.426 67.6602L296.966 70.8941L290.967 62.8964L296.719 54.7197Z" fill="#003CC8"/>
<path opacity="0.3" d="M261.709 2.75866L269.49 11.7986L263.296 21.9918L251.688 19.2515L250.708 7.36474L261.709 2.75866Z" fill="#003CC8"/>
<path opacity="0.3" d="M28.931 58.5962L36.7114 67.6362L30.5181 77.8293L18.9101 75.089L17.9292 63.2023L28.931 58.5962Z" fill="#003CC8"/>
<path d="M57.0982 57.7586C62.2102 57.7586 64.6342 54.9506 64.6342 50.9666V41.4626H60.4582V50.8466C60.4582 52.7426 59.3062 54.1106 57.0982 54.1106C54.8422 54.1106 53.7142 52.7426 53.7142 50.8466V41.4626H49.5142V50.9906C49.5142 54.9266 51.9382 57.7586 57.0982 57.7586ZM78.0742 57.4706V53.8706H71.6422V41.4626H67.5142V57.4706H78.0742ZM85.5307 57.4706V45.0626H89.9947V41.4626H76.9147V45.0626H81.4027V57.4706H85.5307ZM105.616 57.4706L102.352 51.5906C103.84 51.0626 105.544 49.5746 105.544 46.7906C105.544 43.8146 103.528 41.4626 99.9755 41.4626H91.9595V57.4706H96.0875V52.0946H98.1995L100.888 57.4706H105.616ZM99.3515 48.4946H96.0875V45.0626H99.3515C100.432 45.0626 101.344 45.6866 101.344 46.7666C101.344 47.8946 100.432 48.4946 99.3515 48.4946ZM123.379 57.4706L117.331 41.4626H112.147L106.123 57.4706H110.803L111.595 55.1666H117.907L118.699 57.4706H123.379ZM116.779 51.5666H112.699L114.739 45.5426L116.779 51.5666ZM136.654 57.7586C140.95 57.7586 143.326 55.6226 143.326 52.4066C143.326 46.4546 134.278 47.9426 134.278 45.9026C134.278 45.2306 134.806 44.7506 136.006 44.7506C137.59 44.7506 139.342 45.3026 140.686 46.4066L142.942 43.4546C141.238 41.9906 139.006 41.2226 136.438 41.2226C132.334 41.2226 130.054 43.6226 130.054 46.3106C130.054 52.4786 139.126 50.7266 139.126 52.9106C139.126 53.6786 138.262 54.2306 136.846 54.2306C134.662 54.2306 132.886 53.2706 131.734 52.1186L129.55 55.2146C131.158 56.7506 133.414 57.7586 136.654 57.7586ZM159.728 57.4706L153.176 48.9506L159.392 41.4626H154.304L149.384 48.0386V41.4626H145.256V57.4706H149.384V52.7906L150.464 51.4466L154.664 57.4706H159.728ZM165.088 57.4706V41.4626H160.96V57.4706H165.088ZM178.527 57.4706V53.8706H172.095V41.4626H167.967V57.4706H178.527ZM191.23 57.4706V53.8706H184.798V41.4626H180.67V57.4706H191.23ZM207.266 57.7586C212.162 57.7586 215.81 54.3506 215.81 49.4786C215.81 44.6066 212.162 41.1986 207.266 41.1986C202.37 41.1986 198.698 44.6066 198.698 49.4786C198.698 54.3506 202.37 57.7586 207.266 57.7586ZM207.266 54.1106C204.602 54.1106 202.898 52.0706 202.898 49.4786C202.898 46.8626 204.602 44.8466 207.266 44.8466C209.906 44.8466 211.61 46.8626 211.61 49.4786C211.61 52.0706 209.906 54.1106 207.266 54.1106ZM222.017 57.4706V52.0946H225.905C229.505 52.0946 231.473 49.6706 231.473 46.7906C231.473 43.8866 229.505 41.4626 225.905 41.4626H217.889V57.4706H222.017ZM225.353 48.4946H222.017V45.0626H225.353C226.457 45.0626 227.273 45.6866 227.273 46.7906C227.273 47.8706 226.457 48.4946 225.353 48.4946ZM245.047 57.4706V53.8706H237.439V51.1586H244.879V47.5586H237.439V45.0626H245.047V41.4626H233.311V57.4706H245.047ZM262.324 57.4706V41.4626H258.172V50.2706L251.692 41.4626H247.444V57.4706H251.572V48.2066L258.34 57.4706H262.324Z" fill="url(#paint0_linear_1_250)"/>
<defs>
<linearGradient id="paint0_linear_1_250" x1="155.922" y1="42.3463" x2="155.922" y2="61.4728" gradientUnits="userSpaceOnUse">
<stop stop-color="#6D727D"/>
<stop offset="0.359375" stop-color="white"/>
<stop offset="0.505208" stop-color="#C7CCDC"/>
<stop offset="0.822917" stop-color="#6D727D"/>
<stop offset="1" stop-color="#A4AABB"/>
</linearGradient>
</defs>
</svg>
