<svg width="47" height="41" viewBox="0 0 47 41" fill="none"
    xmlns="http://www.w3.org/2000/svg">
    <path fill-rule="evenodd" clip-rule="evenodd" d="M12.6335 4.70033C12.6335 2.3237 14.5601 0.397072 16.9367 0.397072H31.2783C33.6549 0.397072 35.5816 2.32371 35.5816 4.70033V7.96004C35.5816 8.66994 36.157 9.24543 36.8669 9.24543H42.677C45.0536 9.24543 46.9803 11.1721 46.9803 13.5487V35.8324C46.9803 38.209 45.0536 40.1356 42.677 40.1356H4.4662C2.08958 40.1356 0.162941 38.209 0.162941 35.8324V13.5487C0.162941 11.1721 2.08957 9.24543 4.4662 9.24543H11.3481C12.058 9.24543 12.6335 8.66994 12.6335 7.96004V4.70033ZM16.9367 3.41494C16.2268 3.41494 15.6514 3.99043 15.6514 4.70033V7.96004C15.6514 10.3367 13.7247 12.2633 11.3481 12.2633H4.4662C3.7563 12.2633 3.18081 12.8388 3.18081 13.5487V35.8324C3.18081 36.5423 3.7563 37.1177 4.4662 37.1177H42.677C43.3869 37.1177 43.9624 36.5423 43.9624 35.8324V13.5487C43.9624 12.8388 43.3869 12.2633 42.677 12.2633H36.8669C34.4903 12.2633 32.5637 10.3367 32.5637 7.96004V4.70033C32.5637 3.99043 31.9882 3.41494 31.2783 3.41494H16.9367Z" fill="white"/>
    <path d="M30.1068 23.3003C30.1068 26.9487 27.1806 29.9062 23.571 29.9062C19.9613 29.9062 17.0351 26.9487 17.0351 23.3003C17.0351 19.652 19.9613 16.6944 23.571 16.6944C27.1806 16.6944 30.1068 19.652 30.1068 23.3003Z" fill="white"/>
    <path fill-rule="evenodd" clip-rule="evenodd" d="M23.5708 32.3875C28.5252 32.3875 32.5543 28.3261 32.5543 23.3004C32.5543 18.2746 28.5252 14.2132 23.5708 14.2132C18.6164 14.2132 14.5874 18.2746 14.5874 23.3004C14.5874 28.3261 18.6164 32.3875 23.5708 32.3875ZM23.5708 33.0861C28.918 33.0861 33.2528 28.7049 33.2528 23.3004C33.2528 17.8958 28.918 13.5146 23.5708 13.5146C18.2236 13.5146 13.8888 17.8958 13.8888 23.3004C13.8888 28.7049 18.2236 33.0861 23.5708 33.0861Z" fill="white"/>
</svg>
