<svg width="37" height="38" viewBox="0 0 37 38" fill="none" xmlns="http://www.w3.org/2000/svg">
<path d="M33.8949 5.18695H30.8215V3.65027C30.8207 2.83541 30.4967 2.05416 29.9205 1.47797C29.3443 0.901779 28.563 0.577718 27.7482 0.576904H9.30798C8.49313 0.577718 7.71188 0.901779 7.13569 1.47797C6.55949 2.05416 6.23543 2.83541 6.23462 3.65027V5.18695H3.16125C2.3464 5.18776 1.56515 5.51183 0.988957 6.08802C0.412766 6.66421 0.0887043 7.44546 0.0878906 8.26031V12.8704C0.0899238 14.5 0.738177 16.0622 1.89047 17.2145C3.04277 18.3668 4.60503 19.0151 6.23462 19.0171H6.72943C7.36978 21.3693 8.68117 23.4842 10.5035 25.1035C12.3258 26.7228 14.5802 27.7764 16.9914 28.1358V34.3839H9.30798V37.4573H27.7482V34.3839H20.0648V28.1312C22.5073 27.8292 24.802 26.798 26.6496 25.1722C28.4972 23.5464 29.8119 21.4014 30.422 19.0171H30.8215C32.4511 19.0151 34.0134 18.3668 35.1657 17.2145C36.318 16.0622 36.9662 14.5 36.9683 12.8704V8.26031C36.9674 7.44546 36.6434 6.66421 36.0672 6.08802C35.491 5.51183 34.7098 5.18776 33.8949 5.18695V5.18695ZM6.23462 15.9437C5.41976 15.9429 4.63851 15.6189 4.06232 15.0427C3.48613 14.4665 3.16207 13.6852 3.16125 12.8704V8.26031H6.23462V15.9437ZM27.7482 15.9437C27.7481 17.1786 27.5001 18.4008 27.0187 19.538C26.5373 20.6751 25.8324 21.704 24.9458 22.5635C24.0591 23.423 23.0089 24.0957 21.8574 24.5416C20.7059 24.9874 19.4765 25.1975 18.2423 25.1592C15.7955 25.0069 13.5017 23.9174 11.8377 22.1172C10.1737 20.3169 9.26766 17.9446 9.30798 15.4935V3.65027H27.7482V15.9437ZM33.8949 12.8704C33.8941 13.6852 33.57 14.4665 32.9938 15.0427C32.4176 15.6189 31.6364 15.9429 30.8215 15.9437V8.26031H33.8949V12.8704Z" fill="white"/>
</svg>
