<svg width="31" height="31" viewBox="0 0 31 31" fill="none"
    xmlns="http://www.w3.org/2000/svg">
    <path d="M1.38085 20.1564C2.31324 23.2046 4.19958 25.8728 6.7622 27.7684C9.32482 29.6641 12.4283 30.6869 15.6159 30.6864C23.8362 30.6864 30.4994 24.0306 30.4994 15.8215C30.4994 7.61231 23.8362 0.956544 15.6177 0.956544C11.8444 0.955084 8.21152 2.38759 5.45468 4.96399C2.69785 7.54039 1.0231 11.0681 0.769531 14.8329L0.775106 14.8441L8.77243 18.1311C9.49371 17.6536 10.348 17.4174 11.2121 17.4566L14.854 12.1721L14.8522 12.0978C14.8537 10.599 15.4496 9.16193 16.5092 8.10193C17.5689 7.04193 19.0057 6.44552 20.5046 6.44355C22.0034 6.44552 23.4402 7.04193 24.4999 8.10193C25.5595 9.16193 26.1555 10.599 26.1569 12.0978C26.1564 12.8509 26.0055 13.5964 25.7133 14.2905C25.421 14.9847 24.9932 15.6135 24.4549 16.1402C23.9165 16.6669 23.2785 17.081 22.5782 17.3581C21.8779 17.6351 21.1293 17.7697 20.3763 17.7539L15.1662 21.4701C15.1839 22.1585 15.0292 22.8404 14.7162 23.4537C14.4032 24.0671 13.9418 24.5924 13.374 24.982C12.8062 25.3716 12.1501 25.6131 11.4652 25.6845C10.7803 25.7559 10.0884 25.6549 9.4525 25.3907C8.84215 25.1364 8.30199 24.7389 7.87768 24.2318C7.45336 23.7247 7.15734 23.1229 7.01465 22.4772L1.38271 20.1564H1.38085Z" fill="white" />
    <path d="M9.81441 24.5225C10.5886 24.818 11.4474 24.8003 12.2087 24.4732C12.9701 24.1461 13.574 23.5353 13.8926 22.7704C14.2111 22.0054 14.2192 21.1464 13.9151 20.3757C13.6109 19.6049 13.0185 18.9828 12.2634 18.6415C11.5147 18.3291 10.6748 18.3158 9.91661 18.6044L11.8175 19.3922C12.1017 19.5106 12.3599 19.6837 12.5773 19.9019C12.7946 20.12 12.9669 20.3788 13.0842 20.6635C13.2015 20.9482 13.2616 21.2532 13.2611 21.5611C13.2605 21.869 13.1993 22.1738 13.081 22.4581C12.9626 22.7424 12.7895 23.0005 12.5713 23.2179C12.3532 23.4352 12.0944 23.6075 11.8097 23.7248C11.525 23.8421 11.22 23.9023 10.9121 23.9017C10.6042 23.9012 10.2994 23.84 10.0151 23.7216L8.17556 22.9598C8.51031 23.6646 9.0941 24.2206 9.81441 24.5206V24.5225ZM16.7377 12.0973C16.7382 13.0964 17.1351 14.0544 17.8412 14.7613C18.5473 15.4681 19.505 15.8659 20.5041 15.8674C21.5032 15.8659 22.4609 15.4681 23.1671 14.7613C23.8732 14.0544 24.27 13.0964 24.2705 12.0973C24.2691 11.0988 23.8718 10.1417 23.1658 9.43564C22.4597 8.72962 21.5026 8.33233 20.5041 8.33086C19.5057 8.33233 18.5485 8.72962 17.8425 9.43564C17.1365 10.1417 16.7392 11.0988 16.7377 12.0973ZM20.5097 9.25991C20.8816 9.26016 21.2498 9.33364 21.5932 9.47618C21.9367 9.61871 22.2488 9.82751 22.5115 10.0906C22.7743 10.3538 22.9827 10.6661 23.1248 11.0097C23.2669 11.3534 23.3399 11.7217 23.3396 12.0935C23.3394 12.4654 23.2659 12.8336 23.1234 13.1771C22.9808 13.5205 22.772 13.8326 22.5089 14.0954C22.2458 14.3581 21.9335 14.5665 21.5898 14.7086C21.2462 14.8507 20.8779 14.9237 20.506 14.9234C19.755 14.923 19.0349 14.6241 18.5042 14.0927C17.9735 13.5613 17.6756 12.8409 17.6761 12.0898C17.6766 11.3388 17.9754 10.6187 18.5068 10.088C19.0382 9.55729 19.7587 9.25942 20.5097 9.25991Z" fill="white" />
</svg>