<svg width="37" height="37" viewBox="0 0 37 37" fill="none" xmlns="http://www.w3.org/2000/svg">
<path fill-rule="evenodd" clip-rule="evenodd" d="M18.5526 2.82461C10.0542 2.82461 3.16495 9.71387 3.16495 18.2122C3.16495 26.7105 10.0542 33.5998 18.5526 33.5998C27.0509 33.5998 33.9402 26.7105 33.9402 18.2122C33.9402 9.71387 27.0509 2.82461 18.5526 2.82461ZM0.723022 18.2122C0.723022 8.36524 8.70557 0.38269 18.5526 0.38269C28.3995 0.38269 36.3821 8.36524 36.3821 18.2122C36.3821 28.0592 28.3995 36.0417 18.5526 36.0417C8.70557 36.0417 0.723022 28.0592 0.723022 18.2122Z" fill="white"/>
<path fill-rule="evenodd" clip-rule="evenodd" d="M18.5502 27.6517C19.2991 27.6517 19.9061 28.2587 19.9061 29.0076V34.8206C19.9061 35.5694 19.2991 36.1765 18.5502 36.1765C17.8014 36.1765 17.1943 35.5694 17.1943 34.8206V29.0076C17.1943 28.2587 17.8014 27.6517 18.5502 27.6517Z" fill="white"/>
<path fill-rule="evenodd" clip-rule="evenodd" d="M27.1587 18.2123C27.1587 17.4634 27.7657 16.8563 28.5146 16.8563H35.158C35.9068 16.8563 36.5139 17.4634 36.5139 18.2123C36.5139 18.9611 35.9068 19.5682 35.158 19.5682H28.5146C27.7657 19.5682 27.1587 18.9611 27.1587 18.2123Z" fill="white"/>
<path fill-rule="evenodd" clip-rule="evenodd" d="M0.585571 18.2123C0.585571 17.4634 1.19263 16.8563 1.94149 16.8563H7.75448C8.50333 16.8563 9.11039 17.4634 9.11039 18.2123C9.11039 18.9611 8.50333 19.5682 7.75448 19.5682H1.94149C1.19263 19.5682 0.585571 18.9611 0.585571 18.2123Z" fill="white"/>
<path fill-rule="evenodd" clip-rule="evenodd" d="M18.5502 0.247559C19.2991 0.247559 19.9061 0.854622 19.9061 1.60348V7.41647C19.9061 8.16532 19.2991 8.77239 18.5502 8.77239C17.8014 8.77239 17.1943 8.16532 17.1943 7.41647V1.60348C17.1943 0.854622 17.8014 0.247559 18.5502 0.247559Z" fill="white"/>
<path d="M20.5745 17.5171C20.9581 18.6344 20.3634 19.8511 19.2461 20.2347C18.1288 20.6183 16.9121 20.0235 16.5285 18.9062C16.1449 17.7889 16.7397 16.5722 17.857 16.1886C18.9742 15.805 20.1909 16.3998 20.5745 17.5171Z" fill="white"/>
</svg>
