<svg width="568" height="45" viewBox="0 0 568 45" fill="none" xmlns="http://www.w3.org/2000/svg">
<path d="M20.5523 44.5204C34.1843 44.5204 40.6483 37.0324 40.6483 26.4084V1.06444H29.5123V26.0884C29.5123 31.1444 26.4403 34.7924 20.5523 34.7924C14.5363 34.7924 11.5283 31.1444 11.5283 26.0884V1.06444H0.328281V26.4724C0.328281 36.9684 6.79228 44.5204 20.5523 44.5204ZM76.4883 43.7524V34.1524H59.3363V1.06444H48.3283V43.7524H76.4883ZM96.3723 43.7524V10.6644H108.276V1.06444H73.3963V10.6644H85.3643V43.7524H96.3723ZM149.932 43.7524L141.228 28.0724C145.196 26.6644 149.74 22.6964 149.74 15.2724C149.74 7.33644 144.364 1.06444 134.892 1.06444H113.516V43.7524H124.524V29.4164H130.156L137.324 43.7524H149.932ZM133.228 19.8164H124.524V10.6644H133.228C136.108 10.6644 138.54 12.3284 138.54 15.2084C138.54 18.2164 136.108 19.8164 133.228 19.8164ZM197.3 43.7524L181.172 1.06444H167.348L151.284 43.7524H163.764L165.876 37.6084H182.708L184.82 43.7524H197.3ZM179.7 28.0084H168.82L174.26 11.9444L179.7 28.0084ZM232.7 44.5204C244.156 44.5204 250.492 38.8244 250.492 30.2484C250.492 14.3764 226.364 18.3444 226.364 12.9044C226.364 11.1124 227.772 9.83244 230.972 9.83244C235.196 9.83244 239.868 11.3044 243.452 14.2484L249.468 6.37644C244.924 2.47244 238.972 0.424438 232.124 0.424438C221.18 0.424438 215.1 6.82444 215.1 13.9924C215.1 30.4404 239.292 25.7684 239.292 31.5924C239.292 33.6404 236.988 35.1124 233.212 35.1124C227.388 35.1124 222.652 32.5524 219.58 29.4804L213.756 37.7364C218.044 41.8324 224.06 44.5204 232.7 44.5204ZM294.233 43.7524L276.761 21.0324L293.337 1.06444H279.769L266.649 18.6004V1.06444H255.641V43.7524H266.649V31.2724L269.529 27.6884L280.729 43.7524H294.233ZM308.524 43.7524V1.06444H297.516V43.7524H308.524ZM344.363 43.7524V34.1524H327.211V1.06444H316.203V43.7524H344.363ZM378.238 43.7524V34.1524H361.086V1.06444H350.078V43.7524H378.238ZM421 44.5204C434.056 44.5204 443.784 35.4324 443.784 22.4404C443.784 9.44844 434.056 0.360439 421 0.360439C407.944 0.360439 398.152 9.44844 398.152 22.4404C398.152 35.4324 407.944 44.5204 421 44.5204ZM421 34.7924C413.896 34.7924 409.352 29.3524 409.352 22.4404C409.352 15.4644 413.896 10.0884 421 10.0884C428.04 10.0884 432.584 15.4644 432.584 22.4404C432.584 29.3524 428.04 34.7924 421 34.7924ZM460.336 43.7524V29.4164H470.704C480.304 29.4164 485.552 22.9524 485.552 15.2724C485.552 7.52844 480.304 1.06444 470.704 1.06444H449.328V43.7524H460.336ZM469.232 19.8164H460.336V10.6644H469.232C472.176 10.6644 474.352 12.3284 474.352 15.2724C474.352 18.1524 472.176 19.8164 469.232 19.8164ZM521.749 43.7524V34.1524H501.461V26.9204H521.301V17.3204H501.461V10.6644H521.749V1.06444H490.453V43.7524H521.749ZM567.821 43.7524V1.06444H556.749V24.5524L539.469 1.06444H528.141V43.7524H539.149V19.0484L557.197 43.7524H567.821Z" fill="url(#paint0_linear_308_1033)"/>
<defs>
<linearGradient id="paint0_linear_308_1033" x1="284.082" y1="3.08769" x2="284.082" y2="54.0917" gradientUnits="userSpaceOnUse">
<stop stop-color="#6D727D"/>
<stop offset="0.359375" stop-color="white"/>
<stop offset="0.505208" stop-color="#C7CCDC"/>
<stop offset="0.822917" stop-color="#6D727D"/>
<stop offset="1" stop-color="#A4AABB"/>
</linearGradient>
</defs>
</svg>
