<svg width="656" height="29" viewBox="0 0 656 29" fill="none" xmlns="http://www.w3.org/2000/svg">
<path d="M14.48 28.2324C10.3467 28.2324 6.90667 26.9524 4.16 24.3924C1.41333 21.8058 0.04 18.4858 0.04 14.4324C0.04 10.3524 1.4 7.03244 4.12 4.47244C6.86667 1.91244 10.32 0.63244 14.48 0.63244C19.84 0.63244 23.72 3.01911 26.12 7.79244L20.2 10.5924C19.7467 9.49911 18.9867 8.57911 17.92 7.83244C16.88 7.08577 15.7333 6.71244 14.48 6.71244C12.32 6.71244 10.5333 7.45911 9.12 8.95244C7.73333 10.4191 7.04 12.2458 7.04 14.4324C7.04 16.6191 7.73333 18.4591 9.12 19.9524C10.5333 21.4191 12.32 22.1524 14.48 22.1524C15.7333 22.1524 16.88 21.7791 17.92 21.0324C18.9867 20.2858 19.7467 19.3658 20.2 18.2724L26.12 21.0724C25.1067 23.0991 23.64 24.8058 21.72 26.1924C19.8267 27.5524 17.4133 28.2324 14.48 28.2324ZM54.7028 27.7524H46.9028L45.5828 23.9124H35.0628L33.7428 27.7524H25.9428L35.9828 1.07244H44.6228L54.7028 27.7524ZM43.7028 17.9124L40.3028 7.87244L36.9028 17.9124H43.7028ZM74.2734 27.7524H56.6734V1.07244H63.5534V21.7524H74.2734V27.7524ZM95.4453 27.7524H77.8453V1.07244H84.7253V21.7524H95.4453V27.7524ZM132.372 24.3524C129.678 26.9391 126.278 28.2324 122.172 28.2324C118.065 28.2324 114.652 26.9391 111.932 24.3524C109.238 21.7658 107.892 18.4591 107.892 14.4324C107.892 10.4058 109.238 7.09911 111.932 4.51244C114.652 1.92577 118.065 0.63244 122.172 0.63244C126.278 0.63244 129.678 1.92577 132.372 4.51244C135.065 7.09911 136.412 10.4058 136.412 14.4324C136.412 18.4591 135.065 21.7658 132.372 24.3524ZM122.172 22.1524C124.332 22.1524 126.078 21.4191 127.412 19.9524C128.745 18.4858 129.412 16.6458 129.412 14.4324C129.412 12.2191 128.745 10.3791 127.412 8.91244C126.078 7.44577 124.332 6.71244 122.172 6.71244C119.985 6.71244 118.225 7.44577 116.892 8.91244C115.558 10.3791 114.892 12.2191 114.892 14.4324C114.892 16.6458 115.558 18.4858 116.892 19.9524C118.225 21.4191 119.985 22.1524 122.172 22.1524ZM146.757 27.7524H139.877V1.07244H159.437V7.07244H146.757V11.2324H159.157V17.2324H146.757V27.7524ZM184.632 27.7524H173.392V1.07244H184.592C188.859 1.07244 192.326 2.27244 194.992 4.67244C197.686 7.07244 199.032 10.3124 199.032 14.3924C199.032 18.4724 197.686 21.7258 194.992 24.1524C192.326 26.5524 188.872 27.7524 184.632 27.7524ZM184.592 21.7524C186.859 21.7524 188.659 21.0458 189.992 19.6324C191.326 18.1924 191.992 16.4458 191.992 14.3924C191.992 12.2324 191.352 10.4724 190.072 9.11244C188.792 7.75244 186.979 7.07244 184.632 7.07244H180.272V21.7524H184.592ZM215.095 28.2324C210.935 28.2324 207.788 27.2058 205.655 25.1524C203.521 23.0991 202.455 20.3658 202.455 16.9524V1.07244H209.455V16.7124C209.455 18.3391 209.935 19.6591 210.895 20.6724C211.881 21.6591 213.281 22.1524 215.095 22.1524C216.881 22.1524 218.255 21.6591 219.215 20.6724C220.201 19.6591 220.695 18.3391 220.695 16.7124V1.07244H227.655V16.9124C227.655 20.3524 226.588 23.0991 224.455 25.1524C222.348 27.2058 219.228 28.2324 215.095 28.2324ZM245.295 27.7524H238.415V7.07244H230.935V1.07244H252.735V7.07244H245.295V27.7524ZM270.169 27.7524H263.289V16.9924L253.169 1.07244H260.929L266.729 10.9124L272.449 1.07244H280.249L270.169 16.9924V27.7524ZM284.813 14.5524C284.066 15.2991 283.186 15.6724 282.173 15.6724C281.159 15.6724 280.279 15.2991 279.533 14.5524C278.786 13.8058 278.413 12.9258 278.413 11.9124C278.413 10.8991 278.786 10.0191 279.533 9.27244C280.279 8.52577 281.159 8.15244 282.173 8.15244C283.186 8.15244 284.066 8.52577 284.813 9.27244C285.559 10.0191 285.933 10.8991 285.933 11.9124C285.933 12.9258 285.559 13.8058 284.813 14.5524ZM284.813 27.1124C284.066 27.8591 283.186 28.2324 282.173 28.2324C281.159 28.2324 280.279 27.8591 279.533 27.1124C278.786 26.3658 278.413 25.4858 278.413 24.4724C278.413 23.4591 278.786 22.5791 279.533 21.8324C280.279 21.0858 281.159 20.7124 282.173 20.7124C283.186 20.7124 284.066 21.0858 284.813 21.8324C285.559 22.5791 285.933 23.4591 285.933 24.4724C285.933 25.4858 285.559 26.3658 284.813 27.1124ZM327.438 27.7524H320.158L316.118 11.0324L312.078 27.7524H304.798L297.158 1.07244H304.878L308.918 18.8724L313.478 1.07244H318.758L323.318 18.8724L327.318 1.07244H335.078L327.438 27.7524ZM361.461 27.7524H353.661L352.341 23.9124H341.821L340.501 27.7524H332.701L342.741 1.07244H351.381L361.461 27.7524ZM350.461 17.9124L347.061 7.87244L343.661 17.9124H350.461ZM386.191 27.7524H378.311L373.831 18.7924H370.311V27.7524H363.431V1.07244H376.791C379.671 1.07244 381.938 1.91244 383.591 3.59244C385.245 5.27244 386.071 7.39244 386.071 9.95244C386.071 12.0858 385.538 13.8324 384.471 15.1924C383.431 16.5258 382.191 17.4458 380.751 17.9524L386.191 27.7524ZM375.751 12.7924C376.685 12.7924 377.471 12.5391 378.111 12.0324C378.751 11.5258 379.071 10.8191 379.071 9.91244C379.071 9.03244 378.751 8.33911 378.111 7.83244C377.471 7.32577 376.685 7.07244 375.751 7.07244H370.311V12.7924H375.751ZM409.757 27.7524H389.037V22.2724L400.397 7.07244H389.037V1.07244H409.477V6.55244L398.077 21.7524H409.757V27.7524ZM436.356 24.3524C433.663 26.9391 430.263 28.2324 426.156 28.2324C422.049 28.2324 418.636 26.9391 415.916 24.3524C413.223 21.7658 411.876 18.4591 411.876 14.4324C411.876 10.4058 413.223 7.09911 415.916 4.51244C418.636 1.92577 422.049 0.63244 426.156 0.63244C430.263 0.63244 433.663 1.92577 436.356 4.51244C439.049 7.09911 440.396 10.4058 440.396 14.4324C440.396 18.4591 439.049 21.7658 436.356 24.3524ZM426.156 22.1524C428.316 22.1524 430.063 21.4191 431.396 19.9524C432.729 18.4858 433.396 16.6458 433.396 14.4324C433.396 12.2191 432.729 10.3791 431.396 8.91244C430.063 7.44577 428.316 6.71244 426.156 6.71244C423.969 6.71244 422.209 7.44577 420.876 8.91244C419.543 10.3791 418.876 12.2191 418.876 14.4324C418.876 16.6458 419.543 18.4858 420.876 19.9524C422.209 21.4191 423.969 22.1524 426.156 22.1524ZM468.661 27.7524H462.021L450.741 12.3124V27.7524H443.861V1.07244H450.941L461.741 15.7524V1.07244H468.661V27.7524ZM493.03 27.7524H473.47V1.07244H493.03V7.07244H480.35V11.2324H492.75V17.2324H480.35V21.7524H493.03V27.7524ZM514.139 27.7524H507.259V1.07244H520.619C523.499 1.07244 525.766 1.92577 527.419 3.63244C529.073 5.31244 529.899 7.41911 529.899 9.95244C529.899 12.4591 529.073 14.5658 527.419 16.2724C525.766 17.9524 523.499 18.7924 520.619 18.7924H514.139V27.7524ZM519.699 12.7924C520.633 12.7924 521.393 12.5391 521.979 12.0324C522.593 11.5258 522.899 10.8324 522.899 9.95244C522.899 9.04577 522.593 8.33911 521.979 7.83244C521.393 7.32577 520.633 7.07244 519.699 7.07244H514.139V12.7924H519.699ZM555.992 27.7524H548.192L546.872 23.9124H536.352L535.032 27.7524H527.232L537.272 1.07244H545.912L555.992 27.7524ZM544.992 17.9124L541.592 7.87244L538.192 17.9124H544.992ZM569.753 28.2324C565.62 28.2324 562.18 26.9524 559.433 24.3924C556.687 21.8058 555.313 18.4858 555.313 14.4324C555.313 10.3524 556.673 7.03244 559.393 4.47244C562.14 1.91244 565.593 0.63244 569.753 0.63244C575.113 0.63244 578.993 3.01911 581.393 7.79244L575.473 10.5924C575.02 9.49911 574.26 8.57911 573.193 7.83244C572.153 7.08577 571.007 6.71244 569.753 6.71244C567.593 6.71244 565.807 7.45911 564.393 8.95244C563.007 10.4191 562.313 12.2458 562.313 14.4324C562.313 16.6191 563.007 18.4591 564.393 19.9524C565.807 21.4191 567.593 22.1524 569.753 22.1524C571.007 22.1524 572.153 21.7791 573.193 21.0324C574.26 20.2858 575.02 19.3658 575.473 18.2724L581.393 21.0724C580.38 23.0991 578.913 24.8058 576.993 26.1924C575.1 27.5524 572.687 28.2324 569.753 28.2324ZM591.249 27.7524H584.369V1.07244H591.249V27.7524ZM602.928 27.7524H596.048V1.07244H615.608V7.07244H602.928V11.2324H615.328V17.2324H602.928V27.7524ZM626.21 27.7524H619.33V1.07244H626.21V27.7524ZM644.089 28.2324C639.956 28.2324 636.516 26.9524 633.769 24.3924C631.023 21.8058 629.649 18.4858 629.649 14.4324C629.649 10.3524 631.009 7.03244 633.729 4.47244C636.476 1.91244 639.929 0.63244 644.089 0.63244C649.449 0.63244 653.329 3.01911 655.729 7.79244L649.809 10.5924C649.356 9.49911 648.596 8.57911 647.529 7.83244C646.489 7.08577 645.343 6.71244 644.089 6.71244C641.929 6.71244 640.143 7.45911 638.729 8.95244C637.343 10.4191 636.649 12.2458 636.649 14.4324C636.649 16.6191 637.343 18.4591 638.729 19.9524C640.143 21.4191 641.929 22.1524 644.089 22.1524C645.343 22.1524 646.489 21.7791 647.529 21.0324C648.596 20.2858 649.356 19.3658 649.809 18.2724L655.729 21.0724C654.716 23.0991 653.249 24.8058 651.329 26.1924C649.436 27.5524 647.023 28.2324 644.089 28.2324Z" fill="url(#paint0_linear_1_270)"/>
<defs>
<linearGradient id="paint0_linear_1_270" x1="328" y1="2.21197" x2="328" y2="34.0895" gradientUnits="userSpaceOnUse">
<stop stop-color="#6D727D"/>
<stop offset="0.359375" stop-color="white"/>
<stop offset="0.505208" stop-color="#C7CCDC"/>
<stop offset="0.822917" stop-color="#6D727D"/>
<stop offset="1" stop-color="#A4AABB"/>
</linearGradient>
</defs>
</svg>
